<svg width="13" height="13" viewBox="0 0 13 13" fill="none" xmlns="http://www.w3.org/2000/svg">
<g id="material-symbols:arrow-back-ios-new-rounded">
<path id="Vector" d="M11.4292 4.80729L6.87919 9.37083C6.82503 9.425 6.76635 9.46328 6.70315 9.48567C6.63996 9.50842 6.57225 9.51979 6.50003 9.51979C6.42781 9.51979 6.3601 9.50842 6.2969 9.48567C6.23371 9.46328 6.17503 9.425 6.12086 9.37083L1.55732 4.80729C1.43093 4.6809 1.36774 4.52292 1.36774 4.33333C1.36774 4.14375 1.43545 3.98125 1.57086 3.84583C1.70628 3.71042 1.86426 3.64271 2.04482 3.64271C2.22538 3.64271 2.38336 3.71042 2.51878 3.84583L6.50003 7.82708L10.4813 3.84583C10.6077 3.71944 10.7633 3.65625 10.9482 3.65625C11.1334 3.65625 11.2938 3.72396 11.4292 3.85937C11.5646 3.99479 11.6323 4.15278 11.6323 4.33333C11.6323 4.51389 11.5646 4.67187 11.4292 4.80729Z" fill="#A44A21"/>
</g>
</svg>
