<svg width="15" height="16" viewBox="0 0 15 16" fill="none" xmlns="http://www.w3.org/2000/svg">
<g id="simple-line-icons:magnifier" clip-path="url(#clip0_3_659)">
<path id="Vector" d="M14.8629 14.8354L10.3083 10.2529C11.1572 9.23619 11.6688 7.92814 11.6688 6.49986C11.6688 3.26385 9.04546 0.640488 5.80945 0.640488C2.57343 0.640488 -0.0499268 3.26385 -0.0499268 6.49986C-0.0499268 9.73588 2.57343 12.3592 5.80945 12.3592C7.27968 12.3592 8.62265 11.8164 9.65156 10.9216L14.1998 15.4985C14.3829 15.6815 14.6799 15.6815 14.8629 15.4985C15.0457 15.3154 15.0457 15.0187 14.8629 14.8354H14.8629ZM5.80945 11.4295C3.08695 11.4295 0.879839 9.22236 0.879839 6.49986C0.879839 3.77736 3.08695 1.57025 5.80945 1.57025C8.53195 1.57025 10.7391 3.77736 10.7391 6.49986C10.7391 9.22236 8.53195 11.4295 5.80945 11.4295Z" fill="black"/>
</g>
<defs>
<clipPath id="clip0_3_659">
<rect width="15" height="15" fill="white" transform="translate(0 0.640503)"/>
</clipPath>
</defs>
</svg>
